<svg version="1.1" xmlns="http://www.w3.org/2000/svg" xmlns:xlink="http://www.w3.org/1999/xlink" width="24" height="24" viewBox="0,0,256,256"><g fill="#ef3434" fill-rule="nonzero" stroke="none" stroke-width="1" stroke-linecap="butt" stroke-linejoin="miter" stroke-miterlimit="10" stroke-dasharray="" stroke-dashoffset="0" font-family="none" font-weight="none" font-size="none" text-anchor="none" style="mix-blend-mode: normal"><g transform="translate(0,257.86667) scale(0.26667,0.26667)"><path d="M480,-120l-58,-52c-67.33333,-60.66667 -123,-113 -167,-157c-44,-44 -79,-83.5 -105,-118.5c-26,-35 -44.16667,-67.16667 -54.5,-96.5c-10.33333,-29.33333 -15.5,-59.33333 -15.5,-90c0,-62.66667 21,-115 63,-157c42,-42 94.33333,-63 157,-63c34.66667,0 67.66667,7.33333 99,22c31.33333,14.66667 58.33333,35.33333 81,62c22.66667,-26.66667 49.66667,-47.33333 81,-62c31.33333,-14.66667 64.33333,-22 99,-22c62.66667,0 115,21 157,63c42,42 63,94.33333 63,157c0,30.66667 -5.16667,60.66667 -15.5,90c-10.33333,29.33333 -28.5,61.5 -54.5,96.5c-26,35 -61,74.5 -105,118.5c-44,44 -99.66667,96.33333 -167,157z"></path></g></g></svg>